HIERARCHY
ROOT Model
{
	OFFSET 0 0 0
	CHANNELS 6 Xposition Yposition Zposition Zrotation Xrotation Yrotation
	JOINT Model1
	{
		OFFSET 0 -2.25479 2.99384
		CHANNELS 3 Zrotation Xrotation Yrotation
		JOINT Model2
		{
			OFFSET 12.111 0 0
			CHANNELS 3 Zrotation Xrotation Yrotation
			JOINT Model3
			{
				OFFSET 11.5502 0 0
				CHANNELS 3 Zrotation Xrotation Yrotation
				JOINT Model4
				{
					OFFSET 11.781 0 0
					CHANNELS 3 Zrotation Xrotation Yrotation
					JOINT Model5
					{
						OFFSET 20.0601 0 0
						CHANNELS 3 Zrotation Xrotation Yrotation
						JOINT Model6
						{
							OFFSET 11.1962 0 0
							CHANNELS 3 Zrotation Xrotation Yrotation
							End Site
							{
								OFFSET 0 0 0
							}
						}
					}
					JOINT Model7
					{
						OFFSET 10.8223 0.417534 3.51114
						CHANNELS 3 Zrotation Xrotation Yrotation
						JOINT Model8
						{
							OFFSET -6.07944 0 0
							CHANNELS 3 Zrotation Xrotation Yrotation
							JOINT Model9
							{
								OFFSET -0.27742 10.39 -0.051239
								CHANNELS 3 Zrotation Xrotation Yrotation
								JOINT Model10
								{
									OFFSET -3.4391 -0.282043 1.86678
									CHANNELS 3 Zrotation Xrotation Yrotation
									JOINT Model11
									{
										OFFSET 13.0269 0 0
										CHANNELS 3 Zrotation Xrotation Yrotation
										JOINT Model12
										{
											OFFSET 10.8866 0 0
											CHANNELS 3 Zrotation Xrotation Yrotation
											JOINT Model13
											{
												OFFSET 16.7317 0 0
												CHANNELS 3 Zrotation Xrotation Yrotation
												JOINT Model14
												{
													OFFSET 11.8292 0 0
													CHANNELS 3 Zrotation Xrotation Yrotation
													JOINT Model15
													{
														OFFSET 4.82751 -3.73566 -0.836517
														CHANNELS 3 Zrotation Xrotation Yrotation
														JOINT Model16
														{
															OFFSET 3.75311 -0.0582886 -0.0186462
															CHANNELS 3 Zrotation Xrotation Yrotation
															JOINT Model17
															{
																OFFSET 2.88688 0.0192337 0.014801
																CHANNELS 3 Zrotation Xrotation Yrotation
																End Site
																{
																	OFFSET 0 0 0
																}
															}
														}
													}
													JOINT Model18
													{
														OFFSET 9.72197 -3.06458 0.23877
														CHANNELS 3 Zrotation Xrotation Yrotation
														JOINT Model19
														{
															OFFSET 4.61131 0 0
															CHANNELS 3 Zrotation Xrotation Yrotation
															JOINT Model20
															{
																OFFSET 2.8969 -7.62939e-006 0
																CHANNELS 3 Zrotation Xrotation Yrotation
																End Site
																{
																	OFFSET 0 0 0
																}
															}
														}
													}
													JOINT Model21
													{
														OFFSET 9.54431 -0.745064 0.588943
														CHANNELS 3 Zrotation Xrotation Yrotation
														JOINT Model22
														{
															OFFSET 5.33978 0 0
															CHANNELS 3 Zrotation Xrotation Yrotation
															JOINT Model23
															{
																OFFSET 3.03619 7.62939e-006 0
																CHANNELS 3 Zrotation Xrotation Yrotation
																End Site
																{
																	OFFSET 0 0 0
																}
															}
														}
													}
													JOINT Model24
													{
														OFFSET 9.47759 1.51286 0.485123
														CHANNELS 3 Zrotation Xrotation Yrotation
														JOINT Model25
														{
															OFFSET 4.96136 7.62939e-006 0
															CHANNELS 3 Zrotation Xrotation Yrotation
															JOINT Model26
															{
																OFFSET 2.51966 0 0
																CHANNELS 3 Zrotation Xrotation Yrotation
																End Site
																{
																	OFFSET 0 0 0
																}
															}
														}
													}
													JOINT Model27
													{
														OFFSET 9.34247 3.34117 -0.239273
														CHANNELS 3 Zrotation Xrotation Yrotation
														JOINT Model28
														{
															OFFSET 3.2826 2.28882e-005 0
															CHANNELS 3 Zrotation Xrotation Yrotation
															JOINT Model29
															{
																OFFSET 2.1292 0 0
																CHANNELS 3 Zrotation Xrotation Yrotation
																End Site
																{
																	OFFSET 0 0 0
																}
															}
														}
													}
												}
											}
										}
									}
								}
							}
						}
					}
					JOINT Model30
					{
						OFFSET 10.8223 0.4179 -3.51106
						CHANNELS 3 Zrotation Xrotation Yrotation
						JOINT Model31
						{
							OFFSET 6.07944 0 0
							CHANNELS 3 Zrotation Xrotation Yrotation
							JOINT Model32
							{
								OFFSET 0.27742 -10.39 0.051239
								CHANNELS 3 Zrotation Xrotation Yrotation
								JOINT Model33
								{
									OFFSET 3.4391 0.282043 -1.86678
									CHANNELS 3 Zrotation Xrotation Yrotation
									JOINT Model34
									{
										OFFSET -13.0269 0 0
										CHANNELS 3 Zrotation Xrotation Yrotation
										JOINT Model35
										{
											OFFSET -10.8866 0 0
											CHANNELS 3 Zrotation Xrotation Yrotation
											JOINT Model36
											{
												OFFSET -16.7317 0 0
												CHANNELS 3 Zrotation Xrotation Yrotation
												JOINT Model37
												{
													OFFSET -11.8292 0 0
													CHANNELS 3 Zrotation Xrotation Yrotation
													JOINT Model38
													{
														OFFSET -4.82751 3.73566 0.836517
														CHANNELS 3 Zrotation Xrotation Yrotation
														JOINT Model39
														{
															OFFSET -3.75311 0.0582886 0.0186462
															CHANNELS 3 Zrotation Xrotation Yrotation
															JOINT Model40
															{
																OFFSET -2.88689 -0.0192337 -0.014801
																CHANNELS 3 Zrotation Xrotation Yrotation
																End Site
																{
																	OFFSET 0 0 0
																}
															}
														}
													}
													JOINT Model41
													{
														OFFSET -9.72197 3.06459 -0.23877
														CHANNELS 3 Zrotation Xrotation Yrotation
														JOINT Model42
														{
															OFFSET -4.6113 0 0
															CHANNELS 3 Zrotation Xrotation Yrotation
															JOINT Model43
															{
																OFFSET -2.8969 0 0
																CHANNELS 3 Zrotation Xrotation Yrotation
																End Site
																{
																	OFFSET 0 0 0
																}
															}
														}
													}
													JOINT Model44
													{
														OFFSET -9.5443 0.745064 -0.588943
														CHANNELS 3 Zrotation Xrotation Yrotation
														JOINT Model45
														{
															OFFSET -5.33978 0 0
															CHANNELS 3 Zrotation Xrotation Yrotation
															JOINT Model46
															{
																OFFSET -3.03619 -1.52588e-005 0
																CHANNELS 3 Zrotation Xrotation Yrotation
																End Site
																{
																	OFFSET 0 0 0
																}
															}
														}
													}
													JOINT Model47
													{
														OFFSET -9.47758 -1.51286 -0.485123
														CHANNELS 3 Zrotation Xrotation Yrotation
														JOINT Model48
														{
															OFFSET -4.96136 -1.52588e-005 0
															CHANNELS 3 Zrotation Xrotation Yrotation
															JOINT Model49
															{
																OFFSET -2.51965 0 0
																CHANNELS 3 Zrotation Xrotation Yrotation
																End Site
																{
																	OFFSET 0 0 0
																}
															}
														}
													}
													JOINT Model50
													{
														OFFSET -9.34245 -3.34118 0.239273
														CHANNELS 3 Zrotation Xrotation Yrotation
														JOINT Model51
														{
															OFFSET -3.28259 -2.28882e-005 0
															CHANNELS 3 Zrotation Xrotation Yrotation
															JOINT Model52
															{
																OFFSET -2.1292 0 0
																CHANNELS 3 Zrotation Xrotation Yrotation
																End Site
																{
																	OFFSET 0 0 0
																}
															}
														}
													}
												}
											}
										}
									}
								}
							}
						}
					}
				}
			}
		}
	}
	JOINT Model53
	{
		OFFSET 4.38026 -2.14632 -1.11516
		CHANNELS 3 Zrotation Xrotation Yrotation
		JOINT Model54
		{
			OFFSET 0 0 4.95
			CHANNELS 3 Zrotation Xrotation Yrotation
			JOINT Model55
			{
				OFFSET 18.5642 0 0
				CHANNELS 3 Zrotation Xrotation Yrotation
				JOINT Model56
				{
					OFFSET 21.2884 0 1.52588e-005
					CHANNELS 3 Zrotation Xrotation Yrotation
					JOINT Model57
					{
						OFFSET 30.261 0 0
						CHANNELS 3 Zrotation Xrotation Yrotation
						JOINT Model58
						{
							OFFSET 11.7259 0 0
							CHANNELS 3 Zrotation Xrotation Yrotation
							JOINT Model59
							{
								OFFSET 10.682 0 0
								CHANNELS 3 Zrotation Xrotation Yrotation
								End Site
								{
									OFFSET 0 0 0
								}
							}
						}
					}
				}
			}
		}
	}
	JOINT Model60
	{
		OFFSET -4.38026 -2.14632 -1.11516
		CHANNELS 3 Zrotation Xrotation Yrotation
		JOINT Model61
		{
			OFFSET 0 0 -4.95
			CHANNELS 3 Zrotation Xrotation Yrotation
			JOINT Model62
			{
				OFFSET -18.5642 0 0
				CHANNELS 3 Zrotation Xrotation Yrotation
				JOINT Model63
				{
					OFFSET -21.2884 0 -1.52588e-005
					CHANNELS 3 Zrotation Xrotation Yrotation
					JOINT Model64
					{
						OFFSET -30.261 0 0
						CHANNELS 3 Zrotation Xrotation Yrotation
						JOINT Model65
						{
							OFFSET -11.7259 0 0
							CHANNELS 3 Zrotation Xrotation Yrotation
							JOINT Model66
							{
								OFFSET -10.682 0 0
								CHANNELS 3 Zrotation Xrotation Yrotation
								End Site
								{
									OFFSET 0 0 0
								}
							}
						}
					}
				}
			}
		}
	}
}
MOTION
Frames: 4
Frame Time: 0.033333
-247.084 162.19 -431.457 108.341 -26.1317 103.712 -180 4.29621e-031 -90 1.99755 -1.39136 0.720571 4.0142 -2.75708 1.48988 4.0142 -2.75664 1.48985 42.8073 1.82571 -7.15778 -3.13312 1.99304 10.1861 120.092 75.5343 58.4939 19.6393 4.56037 -2.30749 -167.277 84.4999 48.8109 -177.865 -13.4243 -25.2308 2.81246e-006 16.212 3.14231e-005 0.365482 -2.16866 7.49817 -1.32041e-007 -3.22407 -3.74538e-007 1.11914 -0.0453189 -4.63767 -72.0648 39.0385 39.3397 33.3638 2.10362 14.835 0.588947 0.308272 6.35287 -99.6409 81.413 100.35 -0.0181409 2.74047e-005 -0.117315 -0.124139 0.00241065 -0.799296 -79.8382 79.5773 80.5374 -0.000225749 -0.000221294 2.20438e-005 -0.000956189 0.000122391 -2.75249e-005 -66.7416 80.4058 67.2171 -0.000437105 1.5578e-005 -2.74657e-005 -0.000136567 -0.000109789 -5.48379e-005 -6.42159 81.2158 8.01779 -0.000218537 1.65349e-005 0.000212012 0.000901624 -0.000185307 -0.00021874 -59.9282 75.5373 58.5147 18.6635 3.69139 -2.23527 -167.277 84.4999 48.8109 -153.045 -21.2871 0.162988 9.52277e-006 -4.54609 2.82992e-005 -55.458 1.11692 0.501714 -3.76448e-007 1.00453 1.21444e-007 30.2506 -0.793023 -2.93337 -72.0648 39.0385 39.3397 33.3638 2.10361 14.835 0.588946 0.308273 6.35287 -99.6409 81.413 100.35 -0.0181409 3.01989e-005 -0.117315 -0.124139 0.0024113 -0.799296 -79.8382 79.5773 80.5374 -0.000260584 -0.000218447 2.3597e-005 -0.000956142 0.000123156 -2.7285e-005 -66.7416 80.4058 67.2171 -0.000437068 1.50031e-005 -2.72995e-005 -0.000136517 -0.000109119 -5.46129e-005 -6.42159 81.2158 8.01779 -0.0002185 1.96956e-005 0.000212294 0.000901672 -0.000191088 -0.000218569 0.000811311 0.56661 89.91 -8.86693 -1.81648 -7.71258 1.1057e-006 2.97388 -2.133e-008 63.795 2.54725 -0.00773211 1.01347e-007 3.71167 1.46659e-007 -85.1853 14.5406 -6.74373 -35.4947 2.31715e-007 9.58411e-008 -180 -0.566579 -90.09 -1.10705 -23.2989 -17.5148 -7.78819e-006 -20.5177 -1.5104e-006 57.2239 12.7042 -0.00694687 6.2113e-007 18.9544 1.19121e-006 -79.2981 18.9097 -9.30689 -35.4947 6.68839e-009 6.71454e-008 
-247.097 162.174 -431.421 108.226 -26.1949 103.715 -180 4.29621e-031 -90 1.97863 -1.4019 0.728353 3.97669 -2.77812 1.50537 3.97669 -2.77768 1.50534 43.1114 1.73707 -7.37446 -3.05072 1.93694 10.4515 120.092 75.5343 58.4939 19.5265 4.60414 -2.27922 -167.277 84.4999 48.8109 -177.785 -13.634 -25.6514 2.84943e-006 16.1472 3.14128e-005 0.353791 -1.93963 7.90499 -1.29797e-007 -2.88121 -3.74419e-007 1.06909 -0.0463504 -4.96492 -72.0648 39.0385 39.3397 33.3638 2.10362 14.835 0.588947 0.308272 6.35287 -99.6409 81.413 100.35 -0.0181409 2.74047e-005 -0.117315 -0.124139 0.00241065 -0.799296 -79.8382 79.5773 80.5374 -0.000225749 -0.000221294 2.20438e-005 -0.000956189 0.000122391 -2.75249e-005 -66.7416 80.4058 67.2171 -0.000437105 1.5578e-005 -2.74657e-005 -0.000136567 -0.000109789 -5.48379e-005 -6.42159 81.2158 8.01779 -0.000218537 1.65349e-005 0.000212012 0.000901624 -0.000185307 -0.00021874 -59.9282 75.5373 58.5147 18.9165 3.65413 -2.28889 -167.277 84.4999 48.8109 -153.11 -21.1935 0.240406 9.48982e-006 -4.47959 2.82966e-005 -55.4284 0.858367 0.501511 -3.75626e-007 0.616712 1.21433e-007 30.159 -0.817814 -3.03466 -72.0648 39.0385 39.3397 33.3638 2.10361 14.835 0.588946 0.308273 6.35287 -99.6409 81.413 100.35 -0.0181409 3.01989e-005 -0.117315 -0.124139 0.0024113 -0.799296 -79.8382 79.5773 80.5374 -0.000260584 -0.000218447 2.3597e-005 -0.000956142 0.000123156 -2.7285e-005 -66.7416 80.4058 67.2171 -0.000437068 1.50031e-005 -2.72995e-005 -0.000136517 -0.000109119 -5.46129e-005 -6.42159 81.2158 8.01779 -0.0002185 1.96956e-005 0.000212294 0.000901672 -0.000191088 -0.000218569 0.000811311 0.56661 89.91 -8.97432 -1.48124 -7.40225 1.1058e-006 3.23727 -2.13353e-008 63.8879 2.29336 -0.00772996 1.02324e-007 3.33075 1.46599e-007 -85.2877 14.4679 -6.70541 -35.4947 2.39204e-007 9.59273e-008 -180 -0.566579 -90.09 -1.21132 -23.3565 -17.5316 -7.79124e-006 -20.6259 -1.51147e-006 57.2637 12.7804 -0.00697092 6.18617e-007 19.0687 1.19203e-006 -79.1643 19.2231 -9.46498 -35.4947 5.29788e-009 6.88428e-008 
-247.079 162.18 -431.4 108.213 -26.3978 103.696 -180 4.29621e-031 -90 1.9557 -1.361 0.713574 3.92986 -2.69716 1.47382 3.92986 -2.69673 1.47379 43.395 1.36318 -7.11808 -2.73442 1.58221 10.1765 120.092 75.5343 58.4939 19.8476 4.61919 -2.34109 -167.277 84.4999 48.8109 -177.575 -13.5349 -25.1607 2.8459e-006 16.1534 3.14138e-005 0.367257 -2.13958 7.61288 -1.3176e-007 -3.18116 -3.74523e-007 1.01532 -0.0431762 -4.86997 -72.0648 39.0385 39.3397 33.3638 2.10362 14.835 0.588947 0.308272 6.35287 -99.6409 81.413 100.35 -0.0181409 2.74047e-005 -0.117315 -0.124139 0.00241065 -0.799296 -79.8382 79.5773 80.5374 -0.000225749 -0.000221294 2.20438e-005 -0.000956189 0.000122391 -2.75249e-005 -66.7416 80.4058 67.2171 -0.000437105 1.5578e-005 -2.74657e-005 -0.000136567 -0.000109789 -5.48379e-005 -6.42159 81.2158 8.01779 -0.000218537 1.65349e-005 0.000212012 0.000901624 -0.000185307 -0.00021874 -59.9282 75.5373 58.5147 18.4824 3.17889 -2.27425 -167.277 84.4999 48.8109 -153.657 -21.484 -0.213178 9.55896e-006 -4.61913 2.83021e-005 -55.3767 1.11759 0.501224 -3.7645e-007 1.00562 1.21444e-007 30.2971 -0.778352 -2.8745 -72.0648 39.0385 39.3397 33.3638 2.10361 14.835 0.588946 0.308273 6.35287 -99.6409 81.413 100.35 -0.0181409 3.01989e-005 -0.117315 -0.124139 0.0024113 -0.799296 -79.8382 79.5773 80.5374 -0.000260584 -0.000218447 2.3597e-005 -0.000956142 0.000123156 -2.7285e-005 -66.7416 80.4058 67.2171 -0.000437068 1.50031e-005 -2.72995e-005 -0.000136517 -0.000109119 -5.46129e-005 -6.42159 81.2158 8.01779 -0.0002185 1.96956e-005 0.000212294 0.000901672 -0.000191088 -0.000218569 0.000811311 0.56661 89.91 -8.91312 -1.44865 -7.31045 1.10579e-006 3.22648 -2.13351e-008 63.8051 2.24155 -0.00772927 1.02523e-007 3.25311 1.46588e-007 -85.2561 14.1745 -6.60152 -35.4947 2.46108e-007 9.76389e-008 -180 -0.566579 -90.09 -1.31833 -23.1101 -17.3843 -7.78468e-006 -20.3929 -1.50917e-006 57.2854 12.6801 -0.00698945 6.21926e-007 18.9182 1.19095e-006 -79.2406 19.2996 -9.48531 -35.4947 4.79712e-009 7.01223e-008 
-247.044 162.18 -431.403 108.232 -26.4453 103.672 -180 4.29621e-031 -90 1.96126 -1.36674 0.706432 3.9409 -2.70883 1.45987 3.9409 -2.70839 1.45984 42.9782 1.15808 -7.26989 -1.39914 1.47128 10.3312 120.092 75.5343 58.4939 19.4826 4.2748 -2.3149 -167.277 84.4999 48.8109 -178.121 -13.3786 -25.7776 2.69226e-006 16.4222 3.14569e-005 0.379358 -2.1143 7.93263 -1.3153e-007 -3.14599 -3.7451e-007 0.960292 -0.0418269 -4.98798 -72.0648 39.0385 39.3397 33.3638 2.10362 14.835 0.588947 0.308272 6.35287 -99.6409 81.413 100.35 -0.0181409 2.74047e-005 -0.117315 -0.124139 0.00241065 -0.799296 -79.8382 79.5773 80.5374 -0.000225749 -0.000221294 2.20438e-005 -0.000956189 0.000122391 -2.75249e-005 -66.7416 80.4058 67.2171 -0.000437105 1.5578e-005 -2.74657e-005 -0.000136567 -0.000109789 -5.48379e-005 -6.42159 81.2158 8.01779 -0.000218537 1.65349e-005 0.000212012 0.000901624 -0.000185307 -0.00021874 -59.9282 75.5373 58.5147 18.687 3.23867 -2.30403 -167.277 84.4999 48.8109 -153.616 -21.4483 -0.197644 9.53575e-006 -4.57229 2.83002e-005 -55.0003 1.3602 0.498972 -3.77223e-007 1.36998 1.2146e-007 30.4319 -0.851065 -3.12832 -72.0648 39.0385 39.3397 33.3638 2.10361 14.835 0.588946 0.308273 6.35287 -99.6409 81.413 100.35 -0.0181409 3.01989e-005 -0.117315 -0.124139 0.0024113 -0.799296 -79.8382 79.5773 80.5374 -0.000260584 -0.000218447 2.3597e-005 -0.000956142 0.000123156 -2.7285e-005 -66.7416 80.4058 67.2171 -0.000437068 1.50031e-005 -2.72995e-005 -0.000136517 -0.000109119 -5.46129e-005 -6.42159 81.2158 8.01779 -0.0002185 1.96956e-005 0.000212294 0.000901672 -0.000191088 -0.000218569 0.000811311 0.56661 89.91 -8.86086 -1.4486 -7.23928 1.10578e-006 3.18074 -2.13341e-008 63.7838 2.2021 -0.00772891 1.02674e-007 3.19396 1.46579e-007 -85.3291 14.312 -6.64372 -35.4947 2.52483e-007 1.00824e-007 -180 -0.566579 -90.09 -1.3485 -23.1568 -17.4965 -7.78432e-006 -20.3802 -1.50905e-006 57.3192 12.7077 -0.00701087 6.21018e-007 18.9595 1.19125e-006 -79.1461 19.3448 -9.52088 -35.4947 5.09406e-009 7.10272e-008 
